<svg width="24" height="25" viewBox="0 0 24 25" fill="none" xmlns="http://www.w3.org/2000/svg">
<path d="M12 9.70215C11.138 9.70215 10.3114 10.0446 9.7019 10.6541C9.09241 11.2635 8.75 12.0902 8.75 12.9521C8.75 13.8141 9.09241 14.6408 9.7019 15.2502C10.3114 15.8597 11.138 16.2021 12 16.2021C12.862 16.2021 13.6886 15.8597 14.2981 15.2502C14.9076 14.6408 15.25 13.8141 15.25 12.9521C15.25 12.0902 14.9076 11.2635 14.2981 10.6541C13.6886 10.0446 12.862 9.70215 12 9.70215Z" fill="#F7C35F"/>
<path fill-rule="evenodd" clip-rule="evenodd" d="M6.76982 4.03409C10.2458 3.64879 13.7538 3.64879 17.2298 4.03409C19.1288 4.24609 20.6598 5.74109 20.8828 7.64709C21.295 11.1717 21.295 14.7324 20.8828 18.2571C20.6598 20.1631 19.1288 21.6581 17.2308 21.8711C13.7545 22.2565 10.2462 22.2565 6.76982 21.8711C4.87082 21.6581 3.33982 20.1631 3.11682 18.2581C2.70455 14.7331 2.70455 11.1721 3.11682 7.64709C3.33982 5.74109 4.87082 4.24609 6.76982 4.03409ZM16.9998 6.95209C16.7346 6.95209 16.4802 7.05745 16.2927 7.24499C16.1052 7.43252 15.9998 7.68688 15.9998 7.95209C15.9998 8.21731 16.1052 8.47166 16.2927 8.6592C16.4802 8.84673 16.7346 8.95209 16.9998 8.95209C17.265 8.95209 17.5194 8.84673 17.7069 8.6592C17.8945 8.47166 17.9998 8.21731 17.9998 7.95209C17.9998 7.68688 17.8945 7.43252 17.7069 7.24499C17.5194 7.05745 17.265 6.95209 16.9998 6.95209ZM7.24982 12.9521C7.24982 11.6923 7.75027 10.4841 8.64106 9.59333C9.53186 8.70254 10.74 8.20209 11.9998 8.20209C13.2596 8.20209 14.4678 8.70254 15.3586 9.59333C16.2494 10.4841 16.7498 11.6923 16.7498 12.9521C16.7498 14.2119 16.2494 15.4201 15.3586 16.3108C14.4678 17.2016 13.2596 17.7021 11.9998 17.7021C10.74 17.7021 9.53186 17.2016 8.64106 16.3108C7.75027 15.4201 7.24982 14.2119 7.24982 12.9521Z" fill="#F7C35F"/>
</svg>
