<svg width="60.000000" height="60.000000" viewBox="0 0 60 60" fill="none" xmlns="http://www.w3.org/2000/svg" xmlns:xlink="http://www.w3.org/1999/xlink">
	<desc>
			Created with Pixso.
	</desc>
	<defs>
		<clipPath id="clip1_876">
			<rect id="blueberry 2" rx="0.000000" width="59.000000" height="59.000000" transform="translate(0.500000 0.500000)" fill="white" fill-opacity="0"/>
		</clipPath>
	</defs>
	<rect id="blueberry 2" rx="0.000000" width="59.000000" height="59.000000" transform="translate(0.500000 0.500000)" fill="#FFFFFF" fill-opacity="0"/>
	<g clip-path="url(#clip1_876)">
		<path id="Vector" d="M21.25 17.5C21.25 18.88 19.57 20 17.5 20C15.42 20 13.75 18.88 13.75 17.5C13.75 16.11 15.42 15 17.5 15C19.57 15 21.25 16.11 21.25 17.5Z" fill="#39285E" fill-opacity="1.000000" fill-rule="evenodd"/>
		<path id="Vector" d="M31.25 23.75C31.25 26.46 30.44 29.12 28.93 31.38C27.42 33.65 25.27 35.41 22.76 36.45C20.24 37.49 17.48 37.76 14.81 37.23C12.15 36.7 9.7 35.39 7.77 33.47C5.85 31.54 4.54 29.09 4.01 26.43C3.48 23.76 3.75 21 4.79 18.48C5.83 15.97 7.59 13.82 9.86 12.31C12.12 10.8 14.78 10 17.5 10C19.3 9.99 21.09 10.35 22.76 11.04C24.43 11.73 25.94 12.74 27.22 14.02C28.5 15.3 29.51 16.81 30.2 18.48C30.89 20.15 31.25 21.94 31.25 23.75ZM21.25 17.5C21.25 16.12 19.57 15 17.5 15C15.42 15 13.75 16.12 13.75 17.5C13.75 18.87 15.42 20 17.5 20C19.57 20 21.25 18.87 21.25 17.5Z" fill="#6F60BA" fill-opacity="1.000000" fill-rule="nonzero"/>
		<path id="Vector" d="M46.25 26.25C46.25 27.63 44.57 28.75 42.5 28.75C40.42 28.75 38.75 27.63 38.75 26.25C38.75 24.86 40.42 23.75 42.5 23.75C44.57 23.75 46.25 24.86 46.25 26.25Z" fill="#39285E" fill-opacity="1.000000" fill-rule="evenodd"/>
		<path id="Vector" d="M42.5 18.75C45.21 18.75 47.87 19.55 50.13 21.06C52.4 22.57 54.16 24.72 55.2 27.23C56.24 29.75 56.51 32.51 55.98 35.18C55.45 37.84 54.14 40.29 52.22 42.22C50.29 44.14 47.84 45.45 45.18 45.98C42.51 46.51 39.75 46.24 37.23 45.2C34.72 44.16 32.57 42.4 31.06 40.13C29.55 37.87 28.75 35.21 28.75 32.5C28.74 30.69 29.1 28.9 29.79 27.23C30.48 25.56 31.49 24.05 32.77 22.77C34.05 21.49 35.56 20.48 37.23 19.79C38.9 19.1 40.69 18.74 42.5 18.75ZM46.25 26.25C46.25 24.87 44.57 23.75 42.5 23.75C40.42 23.75 38.75 24.87 38.75 26.25C38.75 27.62 40.42 28.75 42.5 28.75C44.57 28.75 46.25 27.62 46.25 26.25Z" fill="#7E6DD4" fill-opacity="1.000000" fill-rule="nonzero"/>
		<path id="Vector" d="M12.5 45C12.5 47.07 11.38 48.75 10 48.75C8.61 48.75 7.5 47.07 7.5 45C7.5 42.92 8.61 41.25 10 41.25C11.38 41.25 12.5 42.92 12.5 45Z" fill="#39285E" fill-opacity="1.000000" fill-rule="evenodd"/>
		<path id="Vector" d="M17.5 31.25C20.21 31.25 22.87 32.05 25.13 33.56C27.4 35.07 29.16 37.22 30.2 39.73C31.24 42.25 31.51 45.01 30.98 47.68C30.45 50.34 29.14 52.79 27.22 54.72C25.29 56.64 22.84 57.95 20.18 58.48C17.51 59.01 14.75 58.74 12.23 57.7C9.72 56.66 7.57 54.9 6.06 52.63C4.55 50.37 3.75 47.71 3.75 45C3.74 43.19 4.1 41.4 4.79 39.73C5.48 38.06 6.49 36.55 7.77 35.27C9.05 33.99 10.56 32.98 12.23 32.29C13.9 31.6 15.69 31.24 17.5 31.25ZM12.5 45C12.5 42.92 11.37 41.25 10 41.25C8.62 41.25 7.5 42.92 7.5 45C7.5 47.07 8.62 48.75 10 48.75C11.37 48.75 12.5 47.07 12.5 45Z" fill="#7E6DD4" fill-opacity="1.000000" fill-rule="nonzero"/>
		<path id="Vector" d="M31.25 23.63C31.64 23.71 31.87 23.75 31.87 23.75L31.9 23.72C32.12 23.47 32.35 23.22 32.58 22.98C33.48 21.34 33.88 19.47 33.75 17.61C33.75 17.61 33.75 4.31 20.62 1.25C19.56 4.07 18.97 7.05 18.87 10.06C22.24 10.4 25.37 11.97 27.66 14.48C29.94 16.98 31.22 20.24 31.25 23.63Z" fill="#4E8C00" fill-opacity="1.000000" fill-rule="nonzero"/>
		<path id="Vector" d="M42.5 18.75C46.06 18.74 49.49 20.13 52.05 22.62C52.96 21.82 53.69 20.84 54.2 19.75C54.71 18.65 54.98 17.45 55 16.25C55 6.25 52.5 1.25 52.5 1.25C48.31 6.72 44.66 12.6 41.62 18.79C41.91 18.77 42.2 18.75 42.5 18.75Z" fill="#63B300" fill-opacity="1.000000" fill-rule="nonzero"/>
		<path id="Vector" d="M52.5 1.25C36.31 4.71 35.1 18.86 35 20.97C36.98 19.68 39.26 18.93 41.62 18.79C44.66 12.6 48.31 6.72 52.5 1.25Z" fill="#4E8C00" fill-opacity="1.000000" fill-rule="nonzero"/>
		<path id="Vector" d="M46.25 26.25C46.25 27.63 44.57 28.75 42.5 28.75C40.42 28.75 38.75 27.63 38.75 26.25C38.75 24.86 40.42 23.75 42.5 23.75C44.57 23.75 46.25 24.86 46.25 26.25Z" fill="#39285E" fill-opacity="1.000000" fill-rule="evenodd"/>
		<path id="Vector" d="M42.5 18.75C45.21 18.75 47.87 19.55 50.13 21.06C52.4 22.57 54.16 24.72 55.2 27.23C56.24 29.75 56.51 32.51 55.98 35.18C55.45 37.84 54.14 40.29 52.22 42.22C50.29 44.14 47.84 45.45 45.18 45.98C42.51 46.51 39.75 46.24 37.23 45.2C34.72 44.16 32.57 42.4 31.06 40.13C29.55 37.87 28.75 35.21 28.75 32.5C28.74 30.69 29.1 28.9 29.79 27.23C30.48 25.56 31.49 24.05 32.77 22.77C34.05 21.49 35.56 20.48 37.23 19.79C38.9 19.1 40.69 18.74 42.5 18.75ZM46.25 26.25C46.25 24.87 44.57 23.75 42.5 23.75C40.42 23.75 38.75 24.87 38.75 26.25C38.75 27.62 40.42 28.75 42.5 28.75C44.57 28.75 46.25 27.62 46.25 26.25Z" fill="#7E6DD4" fill-opacity="1.000000" fill-rule="nonzero"/>
		<path id="Vector" d="M42.5 18.75C39.78 18.75 37.12 19.55 34.86 21.06C32.59 22.57 30.83 24.72 29.79 27.23C28.75 29.75 28.48 32.51 29.01 35.18C29.54 37.84 30.85 40.29 32.77 42.22C34.7 44.14 37.15 45.45 39.81 45.98C42.48 46.51 45.24 46.24 47.76 45.2C50.27 44.16 52.42 42.4 53.93 40.13C55.44 37.87 56.25 35.21 56.25 32.5C56.25 30.69 55.89 28.9 55.2 27.23C54.51 25.56 53.5 24.05 52.22 22.77C50.94 21.49 49.43 20.48 47.76 19.79C46.09 19.1 44.3 18.74 42.5 18.75ZM42.5 40C35.59 40 30 35.52 30 30C30 24.47 35.59 20 42.5 20C49.4 20 55 24.47 55 30C55 35.52 49.4 40 42.5 40Z" fill="#5F4A9E" fill-opacity="1.000000" fill-rule="nonzero"/>
		<path id="Vector" d="M51.25 25.62C51.25 28.73 47.33 31.25 42.5 31.25C37.66 31.25 33.75 28.73 33.75 25.62C33.75 22.51 37.66 20 42.5 20C47.33 20 51.25 22.51 51.25 25.62Z" fill="#9883FF" fill-opacity="1.000000" fill-rule="evenodd"/>
		<path id="Vector" d="M47.5 26.25C47.5 28.32 45.26 30 42.5 30C39.73 30 37.5 28.32 37.5 26.25C37.5 24.17 39.73 22.5 42.5 22.5C45.26 22.5 47.5 24.17 47.5 26.25Z" fill="#5F4A9E" fill-opacity="1.000000" fill-rule="evenodd"/>
		<path id="Vector" d="M46.25 26.25C46.25 27.63 44.57 28.75 42.5 28.75C40.42 28.75 38.75 27.63 38.75 26.25C38.75 24.86 40.42 23.75 42.5 23.75C44.57 23.75 46.25 24.86 46.25 26.25Z" fill="#39285E" fill-opacity="1.000000" fill-rule="evenodd"/>
		<path id="Vector" d="M42.5 25C43.21 24.93 43.94 25.07 44.58 25.4C45.22 25.74 45.75 26.24 46.11 26.87C46.19 26.67 46.24 26.46 46.25 26.25C46.25 24.87 44.57 23.75 42.5 23.75C40.42 23.75 38.75 24.87 38.75 26.25C38.75 26.46 38.8 26.67 38.88 26.87C39.24 26.24 39.77 25.74 40.41 25.4C41.05 25.07 41.78 24.93 42.5 25Z" fill="#261647" fill-opacity="1.000000" fill-rule="nonzero"/>
		<path id="Vector" d="M51.9 27.5C51.81 27.51 51.73 27.54 51.64 27.58C50.95 27.89 50.54 28.83 50.04 29.38C48.68 30.88 46.91 31.94 44.94 32.43C44.73 32.45 44.52 32.51 44.32 32.61C44.13 32.71 43.97 32.86 43.83 33.03C43.75 33.22 43.73 33.44 43.79 33.65C43.84 33.86 43.96 34.04 44.13 34.18C44.47 34.43 44.87 34.6 45.29 34.66C46.86 35.1 48.52 35.1 50.09 34.67C50.85 34.4 51.54 33.98 52.12 33.44C52.71 32.9 53.17 32.24 53.5 31.51C53.7 31.04 53.77 30.53 53.71 30.02C53.65 29.51 53.47 29.03 53.16 28.62C52.85 28.1 52.5 27.42 51.9 27.5Z" fill="#9883FF" fill-opacity="1.000000" fill-rule="nonzero"/>
		<path id="Vector" d="M21.25 17.5C21.25 18.88 19.57 20 17.5 20C15.42 20 13.75 18.88 13.75 17.5C13.75 16.11 15.42 15 17.5 15C19.57 15 21.25 16.11 21.25 17.5Z" fill="#39285E" fill-opacity="1.000000" fill-rule="evenodd"/>
		<path id="Vector" d="M31.25 23.75C31.25 26.46 30.44 29.12 28.93 31.38C27.42 33.65 25.27 35.41 22.76 36.45C20.24 37.49 17.48 37.76 14.81 37.23C12.15 36.7 9.7 35.39 7.77 33.47C5.85 31.54 4.54 29.09 4.01 26.43C3.48 23.76 3.75 21 4.79 18.48C5.83 15.97 7.59 13.82 9.86 12.31C12.12 10.8 14.78 10 17.5 10C19.3 9.99 21.09 10.35 22.76 11.04C24.43 11.73 25.94 12.74 27.22 14.02C28.5 15.3 29.51 16.81 30.2 18.48C30.89 20.15 31.25 21.94 31.25 23.75ZM21.25 17.5C21.25 16.12 19.57 15 17.5 15C15.42 15 13.75 16.12 13.75 17.5C13.75 18.87 15.42 20 17.5 20C19.57 20 21.25 18.87 21.25 17.5Z" fill="#6F60BA" fill-opacity="1.000000" fill-rule="nonzero"/>
		<path id="Vector" d="M17.5 10C14.78 10 12.12 10.8 9.86 12.31C7.59 13.82 5.83 15.97 4.79 18.48C3.75 21 3.48 23.76 4.01 26.43C4.54 29.09 5.85 31.54 7.77 33.47C9.7 35.39 12.15 36.7 14.81 37.23C17.48 37.76 20.24 37.49 22.76 36.45C25.27 35.41 27.42 33.65 28.93 31.38C30.44 29.12 31.25 26.46 31.25 23.75C31.25 21.94 30.89 20.15 30.2 18.48C29.51 16.81 28.5 15.3 27.22 14.02C25.94 12.74 24.43 11.73 22.76 11.04C21.09 10.35 19.3 9.99 17.5 10ZM17.5 31.25C10.59 31.25 5 26.77 5 21.25C5 15.72 10.59 11.25 17.5 11.25C24.4 11.25 30 15.72 30 21.25C30 26.77 24.4 31.25 17.5 31.25Z" fill="#483584" fill-opacity="1.000000" fill-rule="nonzero"/>
		<path id="Vector" d="M26.25 16.87C26.25 19.98 22.33 22.5 17.5 22.5C12.66 22.5 8.75 19.98 8.75 16.87C8.75 13.76 12.66 11.25 17.5 11.25C22.33 11.25 26.25 13.76 26.25 16.87Z" fill="#9883FF" fill-opacity="1.000000" fill-rule="evenodd"/>
		<path id="Vector" d="M22.5 17.5C22.5 19.57 20.26 21.25 17.5 21.25C14.73 21.25 12.5 19.57 12.5 17.5C12.5 15.42 14.73 13.75 17.5 13.75C20.26 13.75 22.5 15.42 22.5 17.5Z" fill="#5F4A9E" fill-opacity="1.000000" fill-rule="evenodd"/>
		<path id="Vector" d="M21.25 17.5C21.25 18.88 19.57 20 17.5 20C15.42 20 13.75 18.88 13.75 17.5C13.75 16.11 15.42 15 17.5 15C19.57 15 21.25 16.11 21.25 17.5Z" fill="#39285E" fill-opacity="1.000000" fill-rule="evenodd"/>
		<path id="Vector" d="M17.5 16.25C18.21 16.18 18.94 16.32 19.58 16.65C20.22 16.99 20.75 17.49 21.11 18.12C21.19 17.92 21.24 17.71 21.25 17.5C21.25 16.12 19.57 15 17.5 15C15.42 15 13.75 16.12 13.75 17.5C13.75 17.71 13.8 17.92 13.88 18.12C14.24 17.49 14.77 16.99 15.41 16.65C16.05 16.32 16.78 16.18 17.5 16.25Z" fill="#261647" fill-opacity="1.000000" fill-rule="nonzero"/>
		<path id="Vector" d="M26.9 18.75C26.81 18.76 26.73 18.79 26.64 18.83C25.95 19.14 25.54 20.08 25.04 20.63C23.68 22.13 21.91 23.19 19.94 23.68C19.73 23.7 19.52 23.76 19.32 23.86C19.13 23.96 18.97 24.11 18.83 24.28C18.75 24.47 18.73 24.69 18.79 24.9C18.84 25.11 18.96 25.29 19.13 25.43C19.47 25.68 19.87 25.85 20.29 25.91C21.86 26.35 23.52 26.35 25.09 25.92C25.85 25.65 26.54 25.23 27.12 24.69C27.71 24.15 28.17 23.49 28.5 22.76C28.7 22.29 28.77 21.78 28.71 21.27C28.65 20.76 28.47 20.28 28.16 19.87C27.85 19.35 27.5 18.67 26.9 18.75Z" fill="#7E6DD4" fill-opacity="1.000000" fill-rule="nonzero"/>
		<path id="Vector" d="M8.76 34.37C11.22 32.34 14.31 31.24 17.49 31.25C15.02 31.26 12.58 30.66 10.4 29.48C9.07 30.28 7.88 31.3 6.88 32.5C7.45 33.18 8.08 33.81 8.76 34.37Z" fill="#39285E" fill-opacity="1.000000" fill-rule="nonzero"/>
		<path id="Vector" d="M29.98 20.99C29.54 21.27 29.12 21.58 28.72 21.91C28.69 22.2 28.62 22.49 28.5 22.76C27.91 24.07 26.86 25.12 25.54 25.71C24.92 26.81 24.45 27.99 24.15 29.21C22.04 28.04 19.66 27.45 17.24 27.49C14.83 27.54 12.47 28.22 10.4 29.48C12.49 30.58 14.81 31.19 17.18 31.24C19.54 31.29 21.88 30.78 24.02 29.76C24.21 29.67 24.4 29.58 24.59 29.48C26.15 28.72 27.47 27.55 28.42 26.11C29.38 24.66 29.92 22.98 30 21.25C30 21.16 29.98 21.07 29.98 20.99Z" fill="#483584" fill-opacity="1.000000" fill-rule="nonzero"/>
		<path id="Vector" d="M30.84 20.46C30.54 20.63 30.26 20.8 29.98 20.99C29.98 21.07 30 21.16 30 21.24C29.92 22.98 29.38 24.66 28.43 26.11C27.47 27.56 26.15 28.72 24.59 29.48C24.4 29.58 24.21 29.67 24.02 29.77C21.98 30.75 19.75 31.26 17.5 31.24C20.68 31.26 23.76 32.36 26.23 34.37C26.91 33.81 27.54 33.18 28.1 32.49C28.34 32.2 28.57 31.89 28.79 31.58C28.94 29.1 29.78 26.71 31.19 24.66C31.21 24.36 31.24 24.05 31.24 23.74C31.24 22.64 31.1 21.54 30.84 20.46Z" fill="#39285E" fill-opacity="1.000000" fill-rule="nonzero"/>
		<path id="Vector" d="M28.5 22.76C28.61 22.49 28.69 22.2 28.72 21.91C27.43 22.97 26.36 24.26 25.54 25.71C26.85 25.12 27.9 24.07 28.5 22.76Z" fill="#5F4A9E" fill-opacity="1.000000" fill-rule="nonzero"/>
		<path id="Vector" d="M12.5 45C12.5 47.07 11.38 48.75 10 48.75C8.61 48.75 7.5 47.07 7.5 45C7.5 42.92 8.61 41.25 10 41.25C11.38 41.25 12.5 42.92 12.5 45Z" fill="#39285E" fill-opacity="1.000000" fill-rule="evenodd"/>
		<path id="Vector" d="M17.5 31.25C20.21 31.25 22.87 32.05 25.13 33.56C27.4 35.07 29.16 37.22 30.2 39.73C31.24 42.25 31.51 45.01 30.98 47.68C30.45 50.34 29.14 52.79 27.22 54.72C25.29 56.64 22.84 57.95 20.18 58.48C17.51 59.01 14.75 58.74 12.23 57.7C9.72 56.66 7.57 54.9 6.06 52.63C4.55 50.37 3.75 47.71 3.75 45C3.74 43.19 4.1 41.4 4.79 39.73C5.48 38.06 6.49 36.55 7.77 35.27C9.05 33.99 10.56 32.98 12.23 32.29C13.9 31.6 15.69 31.24 17.5 31.25ZM12.5 45C12.5 42.92 11.37 41.25 10 41.25C8.62 41.25 7.5 42.92 7.5 45C7.5 47.07 8.62 48.75 10 48.75C11.37 48.75 12.5 47.07 12.5 45Z" fill="#7E6DD4" fill-opacity="1.000000" fill-rule="nonzero"/>
		<path id="Vector" d="M3.75 45C3.75 47.71 4.55 50.37 6.06 52.63C7.57 54.9 9.72 56.66 12.23 57.7C14.75 58.74 17.51 59.01 20.18 58.48C22.84 57.95 25.29 56.64 27.22 54.72C29.14 52.79 30.45 50.34 30.98 47.68C31.51 45.01 31.24 42.25 30.2 39.73C29.16 37.22 27.4 35.07 25.13 33.56C22.87 32.05 20.21 31.25 17.5 31.25C15.69 31.24 13.9 31.6 12.23 32.29C10.56 32.98 9.05 33.99 7.77 35.27C6.49 36.55 5.48 38.06 4.79 39.73C4.1 41.4 3.74 43.19 3.75 45ZM25 45C25 51.9 20.52 57.5 15 57.5C9.47 57.5 5 51.9 5 45C5 38.09 9.47 32.5 15 32.5C20.52 32.5 25 38.09 25 45Z" fill="#5F4A9E" fill-opacity="1.000000" fill-rule="nonzero"/>
		<path id="Vector" d="M16.25 45C16.25 49.83 13.73 53.75 10.62 53.75C7.51 53.75 5 49.83 5 45C5 40.16 7.51 36.25 10.62 36.25C13.73 36.25 16.25 40.16 16.25 45Z" fill="#9883FF" fill-opacity="1.000000" fill-rule="evenodd"/>
		<path id="Vector" d="M13.75 45C13.75 47.76 12.07 50 10 50C7.92 50 6.25 47.76 6.25 45C6.25 42.23 7.92 40 10 40C12.07 40 13.75 42.23 13.75 45Z" fill="#5F4A9E" fill-opacity="1.000000" fill-rule="evenodd"/>
		<path id="Vector" d="M12.5 45C12.5 47.07 11.38 48.75 10 48.75C8.61 48.75 7.5 47.07 7.5 45C7.5 42.92 8.61 41.25 10 41.25C11.38 41.25 12.5 42.92 12.5 45Z" fill="#39285E" fill-opacity="1.000000" fill-rule="evenodd"/>
		<path id="Vector" d="M8.75 45C8.68 44.28 8.82 43.55 9.15 42.91C9.49 42.27 9.99 41.74 10.62 41.38C10.42 41.3 10.21 41.25 10 41.25C8.62 41.25 7.5 42.92 7.5 45C7.5 47.07 8.62 48.75 10 48.75C10.21 48.74 10.42 48.69 10.62 48.61C9.99 48.25 9.49 47.72 9.15 47.08C8.82 46.44 8.68 45.71 8.75 45Z" fill="#261647" fill-opacity="1.000000" fill-rule="nonzero"/>
		<path id="Vector" d="M13.5 35.5C13.51 35.59 13.53 35.68 13.57 35.76C13.89 36.46 14.83 36.87 15.37 37.36C16.87 38.72 17.94 40.5 18.42 42.46C18.44 42.68 18.5 42.89 18.6 43.08C18.71 43.27 18.85 43.44 19.02 43.58C19.22 43.66 19.44 43.67 19.65 43.62C19.85 43.57 20.04 43.45 20.17 43.28C20.42 42.94 20.59 42.54 20.65 42.12C21.09 40.55 21.1 38.89 20.66 37.31C20.4 36.56 19.98 35.87 19.44 35.28C18.89 34.7 18.23 34.23 17.5 33.91C17.03 33.71 16.52 33.63 16.01 33.69C15.51 33.75 15.02 33.94 14.61 34.24C14.1 34.56 13.42 34.9 13.5 35.5Z" fill="#9883FF" fill-opacity="1.000000" fill-rule="nonzero"/>
		<path id="Vector" d="M31.25 23.63C31.64 23.71 31.87 23.75 31.87 23.75L31.9 23.72C32.12 23.47 32.35 23.22 32.58 22.98C33.48 21.34 33.88 19.47 33.75 17.61C33.75 17.61 33.75 4.31 20.62 1.25C19.56 4.07 18.97 7.05 18.87 10.06C22.24 10.4 25.37 11.97 27.66 14.48C29.94 16.98 31.22 20.24 31.25 23.63Z" fill="#4E8C00" fill-opacity="1.000000" fill-rule="nonzero"/>
		<path id="Vector" d="M42.5 18.75C46.06 18.74 49.49 20.13 52.05 22.62C52.96 21.82 53.69 20.84 54.2 19.75C54.71 18.65 54.98 17.45 55 16.25C55 6.25 52.5 1.25 52.5 1.25C48.31 6.72 44.66 12.6 41.62 18.79C41.91 18.77 42.2 18.75 42.5 18.75Z" fill="#63B300" fill-opacity="1.000000" fill-rule="nonzero"/>
		<path id="Vector" d="M52.5 1.25C36.31 4.71 35.1 18.86 35 20.97C36.98 19.68 39.26 18.93 41.62 18.79C44.66 12.6 48.31 6.72 52.5 1.25Z" fill="#4E8C00" fill-opacity="1.000000" fill-rule="nonzero"/>
		<path id="Vector" d="M44.21 13.87C43.34 15.42 42.46 17.06 41.62 18.79C41.91 18.78 42.2 18.75 42.5 18.75C46.06 18.75 49.49 20.14 52.05 22.63C52.84 21.88 53.52 21.01 54.04 20.05C52.95 18.36 51.51 16.94 49.81 15.87C48.11 14.8 46.2 14.12 44.21 13.87Z" fill="#4E8C00" fill-opacity="1.000000" fill-rule="nonzero"/>
		<path id="Vector" d="M41.62 18.79C42.47 17.06 43.35 15.41 44.21 13.86C43.64 13.79 43.07 13.75 42.5 13.75C40.27 13.74 38.07 14.29 36.1 15.33C35.49 17.15 35.12 19.05 35 20.97C36.98 19.68 39.26 18.93 41.62 18.79Z" fill="#3F7000" fill-opacity="1.000000" fill-rule="nonzero"/>
		<path id="Vector" d="M19.5 5.26C19.19 6.85 18.98 8.45 18.87 10.06C22.24 10.4 25.37 11.97 27.66 14.48C29.94 16.98 31.22 20.24 31.25 23.63C31.64 23.71 31.87 23.75 31.87 23.75L31.9 23.72C32.12 23.47 32.35 23.22 32.58 22.98C33.48 21.34 33.88 19.47 33.75 17.61C33.69 16.08 33.44 14.56 33.01 13.09C29.7 8.81 24.85 6 19.5 5.26Z" fill="#3F7000" fill-opacity="1.000000" fill-rule="nonzero"/>
		<path id="Vector" d="M51.45 23.56C52.57 24.68 52.83 26.24 52.02 27.05C51.22 27.85 49.66 27.6 48.53 26.47C47.41 25.35 47.16 23.79 47.96 22.99C48.77 22.18 50.33 22.44 51.45 23.56Z" fill="#F6FAFD" fill-opacity="1.000000" fill-rule="evenodd"/>
		<path id="Vector" d="M16.44 36.05C17.56 37.17 17.82 38.73 17.01 39.54C16.21 40.34 14.65 40.08 13.53 38.96C12.4 37.84 12.15 36.28 12.95 35.48C13.76 34.67 15.32 34.93 16.44 36.05Z" fill="#F6FAFD" fill-opacity="1.000000" fill-rule="evenodd"/>
		<path id="Vector" d="M35.2 31.05C36.32 32.17 36.58 33.74 35.77 34.54C34.96 35.35 33.4 35.09 32.28 33.97C31.16 32.85 30.9 31.29 31.71 30.48C32.51 29.68 34.08 29.93 35.2 31.05Z" fill="#C4B0FF" fill-opacity="1.000000" fill-rule="evenodd"/>
		<path id="Vector" d="M50.72 29.29C51.28 29.85 51.41 30.63 51.01 31.03C50.6 31.43 49.82 31.31 49.26 30.75C48.7 30.18 48.57 29.4 48.98 29C49.38 28.6 50.16 28.73 50.72 29.29Z" fill="#F6FAFD" fill-opacity="1.000000" fill-rule="evenodd"/>
		<path id="Vector" d="M25.72 18.03C26.28 18.59 26.41 19.37 26.01 19.77C25.6 20.17 24.82 20.05 24.26 19.49C23.7 18.92 23.57 18.14 23.98 17.74C24.38 17.34 25.16 17.47 25.72 18.03Z" fill="#F6FAFD" fill-opacity="1.000000" fill-rule="evenodd"/>
		<path id="Vector" d="M25.04 15.27C25.32 15.55 25.38 15.94 25.18 16.14C24.98 16.34 24.59 16.28 24.31 16C24.03 15.72 23.97 15.33 24.17 15.12C24.37 14.92 24.76 14.99 25.04 15.27Z" fill="#F6FAFD" fill-opacity="1.000000" fill-rule="evenodd"/>
		<path id="Vector" d="M57.25 29.77L54.79 30.22C54.92 30.97 54.99 31.73 55 32.49C55 34.5 54.52 36.47 53.6 38.25C52.68 40.03 51.34 41.56 49.71 42.72C48.07 43.87 46.18 44.62 44.2 44.89C42.21 45.17 40.19 44.96 38.31 44.29C36.42 43.61 34.72 42.5 33.35 41.04C31.99 39.57 30.99 37.8 30.46 35.87C29.92 33.94 29.85 31.91 30.26 29.95C30.67 27.99 31.55 26.16 32.81 24.6C33.09 24.37 33.34 24.09 33.55 23.78C35 22.28 36.81 21.17 38.81 20.55C40.81 19.93 42.93 19.83 44.98 20.24C47.03 20.66 48.94 21.58 50.54 22.92C52.14 24.27 53.38 26 54.14 27.95L56.47 27.04C55.84 25.42 54.93 23.92 53.79 22.61C55.36 20.86 56.24 18.6 56.25 16.24C56.25 6.07 53.72 0.9 53.62 0.69C53.5 0.44 53.29 0.24 53.04 0.12C52.79 0 52.5 -0.04 52.23 0.02C40.83 2.47 36.46 10.06 34.78 15.46C34.14 11.34 31.53 2.51 20.91 0.03C20.63 -0.04 20.33 0 20.07 0.12C19.81 0.25 19.61 0.46 19.49 0.72C18.51 3.3 17.92 6.01 17.74 8.76C17.66 8.76 17.58 8.74 17.5 8.74C14.76 8.74 12.06 9.5 9.71 10.92C7.37 12.35 5.45 14.39 4.19 16.83C2.92 19.27 2.35 22 2.53 24.74C2.71 27.48 3.65 30.12 5.22 32.37L7.27 30.93C6.14 29.32 5.4 27.47 5.12 25.53C4.84 23.58 5.02 21.6 5.65 19.74C6.28 17.88 7.34 16.19 8.74 14.82C10.15 13.44 11.85 12.42 13.73 11.82C15.6 11.23 17.59 11.09 19.52 11.41C21.46 11.73 23.3 12.5 24.88 13.66C26.47 14.82 27.76 16.34 28.64 18.09C29.53 19.84 30 21.78 30 23.74C30 23.92 29.98 24.09 29.97 24.26C28.35 26.7 27.49 29.57 27.5 32.49C27.5 32.97 27.52 33.44 27.57 33.91C25.02 31.61 21.76 30.25 18.33 30.06C14.9 29.88 11.51 30.87 8.73 32.89C5.95 34.9 3.95 37.81 3.05 41.13C2.16 44.44 2.44 47.97 3.83 51.1C5.23 54.24 7.66 56.8 10.72 58.36C13.78 59.92 17.28 60.38 20.64 59.67C24 58.95 27.01 57.1 29.17 54.43C31.33 51.76 32.5 48.43 32.5 44.99C32.5 44.52 32.47 44.04 32.42 43.58C34.57 45.54 37.24 46.83 40.11 47.3C42.98 47.77 45.92 47.39 48.58 46.22C51.23 45.04 53.49 43.12 55.08 40.68C56.66 38.25 57.5 35.4 57.5 32.49C57.49 31.58 57.41 30.67 57.25 29.77ZM53.75 16.24C53.74 17.95 53.12 19.59 51.99 20.86C49.61 18.92 46.7 17.76 43.65 17.54C46.13 12.77 48.96 8.18 52.12 3.83C53.27 7.87 53.82 12.05 53.75 16.24ZM49.29 3.46C46.12 7.95 43.29 12.68 40.82 17.59C39.33 17.76 37.87 18.15 36.5 18.75C37.04 15.28 38.51 12.02 40.77 9.32C43.02 6.63 45.97 4.6 49.29 3.46ZM20.21 9C20.39 6.88 20.79 4.78 21.4 2.74C32.32 5.98 32.5 17.12 32.5 17.61C32.51 18.64 32.41 19.67 32.18 20.68C31.56 17.77 30.1 15.1 27.97 13.02C25.83 10.94 23.13 9.55 20.21 9ZM17.5 57.49C15.02 57.49 12.61 56.76 10.55 55.39C8.49 54.01 6.89 52.06 5.95 49.78C5 47.49 4.75 44.98 5.24 42.56C5.72 40.13 6.91 37.9 8.66 36.16C10.4 34.41 12.63 33.22 15.06 32.73C17.48 32.25 19.99 32.5 22.28 33.45C24.56 34.39 26.51 35.99 27.89 38.05C29.26 40.11 30 42.52 30 44.99C29.99 48.31 28.67 51.49 26.33 53.83C23.99 56.17 20.81 57.49 17.5 57.49Z" fill="#001A1F" fill-opacity="1.000000" fill-rule="nonzero"/>
		<path id="Vector" d="M10 40C7.89 40 6.25 42.19 6.25 45C6.25 47.8 7.89 50 10 50C12.1 50 13.75 47.8 13.75 45C13.75 42.19 12.1 40 10 40ZM10 47.5C9.48 47.5 8.75 46.52 8.75 45C8.75 43.47 9.48 42.5 10 42.5C10.51 42.5 11.25 43.47 11.25 45C11.25 46.52 10.51 47.5 10 47.5Z" fill="#001A1F" fill-opacity="1.000000" fill-rule="nonzero"/>
		<path id="Vector" d="M22.5 17.5C22.5 15.39 20.3 13.75 17.5 13.75C14.69 13.75 12.5 15.39 12.5 17.5C12.5 19.6 14.69 21.25 17.5 21.25C20.3 21.25 22.5 19.6 22.5 17.5ZM15 17.5C15 16.99 15.97 16.25 17.5 16.25C19.02 16.25 20 16.99 20 17.5C20 18 19.02 18.75 17.5 18.75C15.97 18.75 15 18 15 17.5Z" fill="#001A1F" fill-opacity="1.000000" fill-rule="nonzero"/>
		<path id="Vector" d="M37.5 26.25C37.5 28.35 39.69 30 42.5 30C45.3 30 47.5 28.35 47.5 26.25C47.5 24.14 45.3 22.5 42.5 22.5C39.69 22.5 37.5 24.14 37.5 26.25ZM45 26.25C45 26.75 44.02 27.5 42.5 27.5C40.97 27.5 40 26.75 40 26.25C40 25.74 40.97 25 42.5 25C44.02 25 45 25.74 45 26.25Z" fill="#001A1F" fill-opacity="1.000000" fill-rule="nonzero"/>
	</g>
</svg>
