<svg width="60.000000" height="60.000000" viewBox="0 0 60 60" fill="none" xmlns="http://www.w3.org/2000/svg" xmlns:xlink="http://www.w3.org/1999/xlink">
	<desc>
			Created with Pixso.
	</desc>
	<defs>
		<clipPath id="clip1_696">
			<rect id="cabbage" rx="0.000000" width="59.907715" height="59.907715" transform="translate(0.046143 0.046143)" fill="white" fill-opacity="0"/>
		</clipPath>
	</defs>
	<rect id="cabbage" rx="0.000000" width="59.907715" height="59.907715" transform="translate(0.046143 0.046143)" fill="#FFFFFF" fill-opacity="0"/>
	<g clip-path="url(#clip1_696)">
		<mask id="mask1_700" mask-type="alpha" maskUnits="userSpaceOnUse" x="0.000000" y="0.000000" width="60.000000" height="60.000000">
			<path id="path5427" d="M0 0L60 0L60 60L0 60L0 0Z" fill="#000000" fill-opacity="1.000000" fill-rule="nonzero"/>
		</mask>
		<g mask="url(#mask1_700)">
			<path id="path5433" d="M27.2 57.19C27.54 55.54 29.23 50.76 37.66 50.96C37.66 50.96 38.68 41.78 44.1 39.43C43.85 38.72 43.71 37.96 43.71 37.16C43.71 33.67 46.35 30.79 49.75 30.42C49.99 30.39 50.24 30.38 50.49 30.38C51.77 30.38 52.97 30.73 53.99 31.35C55.96 32.54 57.27 34.7 57.27 37.16C57.27 40.83 54.35 43.82 50.71 43.94C49.51 53.35 41.84 61.9 27.12 57.74C27.12 57.74 27.13 57.54 27.2 57.19Z" fill="#73CA5B" fill-opacity="1.000000" fill-rule="evenodd"/>
			<path id="path5437" d="M18.42 43.27C25.49 48.67 27.12 57.74 27.12 57.74C14.48 57.74 4.24 47.12 4.24 34.01C4.24 30.79 4.85 27.73 5.97 24.93C5.94 25.17 4.47 36.54 14.65 41.03C16.05 41.65 17.31 42.42 18.42 43.27Z" fill="#A6F074" fill-opacity="1.000000" fill-rule="evenodd"/>
			<path id="path5441" d="M16.1 32.8C20.46 35.22 18.42 43.27 18.42 43.27C17.31 42.42 16.05 41.65 14.65 41.03C4.47 36.54 5.94 25.17 5.97 24.93L5.97 24.93C0.01 20.92 3.38 15.87 7.07 16.13L7.07 16.13C8.18 16.21 9.32 16.77 10.25 17.98L10.25 17.98L10.25 17.98C12.28 19.99 12.23 23.36 12.23 23.36C16.28 26.01 16.1 32.8 16.1 32.8Z" fill="#73CA5B" fill-opacity="1.000000" fill-rule="evenodd"/>
			<path id="path5445" d="M49.74 30.39C48.15 19.61 39.56 11.21 28.93 10.35C28.93 10.35 31.51 5.87 38.21 7.63L38.21 7.63C39.67 8.01 41.31 8.69 43.16 9.76C43.16 9.76 48.73 7.34 50.91 13.28C58.06 13.9 58.96 21.57 54.55 25.99C54.55 25.99 55.86 28 53.99 31.35C52.97 30.73 51.77 30.38 50.49 30.38C50.24 30.38 49.99 30.39 49.75 30.42C49.74 30.41 49.74 30.4 49.74 30.39Z" fill="#A6F074" fill-opacity="1.000000" fill-rule="evenodd"/>
			<path id="path5449" d="M49.74 30.39C49.74 30.4 49.74 30.41 49.75 30.42C46.35 30.79 43.71 33.67 43.71 37.16C43.71 37.96 43.85 38.72 44.1 39.43C38.68 41.78 37.66 50.96 37.66 50.96C29.23 50.76 27.54 55.54 27.2 57.19C27.13 57.54 27.12 57.74 27.12 57.74C27.12 57.74 25.49 48.67 18.42 43.27C18.42 43.27 20.46 35.22 16.1 32.8C16.1 32.8 16.28 26.01 12.23 23.36C12.23 23.36 12.28 19.99 10.25 17.98C14.43 13.25 20.44 10.28 27.12 10.28C27.73 10.28 28.33 10.3 28.93 10.35C39.56 11.21 48.15 19.61 49.74 30.39Z" fill="#DCFFB6" fill-opacity="1.000000" fill-rule="evenodd"/>
			<path id="path5453" d="M38.21 7.63C38.21 7.63 36.63 1.17 29.12 1.17C21.61 1.17 20.64 6.49 20.64 6.49C20.64 6.49 8.25 5.18 7.07 16.13L7.07 16.13C8.18 16.21 9.32 16.77 10.25 17.98L10.25 17.98C14.43 13.25 20.44 10.28 27.12 10.28C27.73 10.28 28.33 10.3 28.93 10.35L28.93 10.35C28.93 10.35 31.51 5.87 38.21 7.63L38.21 7.63Z" fill="#73CA5B" fill-opacity="1.000000" fill-rule="evenodd"/>
			<path id="path5457" d="M43.16 9.76C43.16 9.76 48.73 7.34 50.91 13.28C58.06 13.9 58.96 21.57 54.55 25.99C54.55 25.99 55.86 28 53.99 31.35L53.99 31.35C52.97 30.73 51.77 30.38 50.49 30.38C50.24 30.38 49.99 30.39 49.75 30.42C48.16 19.62 39.57 11.21 28.93 10.35L28.93 10.35C28.93 10.35 32.75 3.71 43.16 9.76Z" stroke="#000000" stroke-opacity="1.000000" stroke-width="2.460937" stroke-linejoin="round"/>
			<path id="path5461" d="M9.09 48.63C13.28 54.18 19.8 57.74 27.12 57.74C27.12 57.74 27.48 50.72 37.66 50.96C37.66 50.96 38.68 41.78 44.1 39.43C43.85 38.72 43.71 37.96 43.71 37.16C43.71 33.67 46.35 30.79 49.75 30.42C48.08 19.02 38.52 10.13 26.83 10.28M7.19 45.69C7.2 45.71 7.21 45.73 7.22 45.75M5.97 24.93C4.85 27.73 4.24 30.79 4.24 34.01C4.24 36.52 4.61 38.93 5.3 41.2M18.73 11.92C15.47 13.26 12.58 15.35 10.25 17.98M21.9 10.9C21.89 10.9 21.89 10.9 21.88 10.9" stroke="#000000" stroke-opacity="1.000000" stroke-width="2.460937" stroke-linejoin="round" stroke-linecap="round"/>
			<path id="path5465" d="M34.69 20.3C34.69 20.3 21.17 27.73 27.2 57.19" stroke="#000000" stroke-opacity="1.000000" stroke-width="2.460937" stroke-linejoin="round" stroke-linecap="round"/>
			<path id="path5469" d="M27.12 57.74C27.12 57.74 24.94 45.58 14.65 41.03C4.47 36.54 5.94 25.17 5.97 24.93" stroke="#000000" stroke-opacity="1.000000" stroke-width="2.460937" stroke-linejoin="round" stroke-linecap="round"/>
			<path id="path5473" d="M43.71 37.16C43.71 37.96 43.85 38.72 44.1 39.43C38.68 41.78 37.66 50.96 37.66 50.96C27.48 50.72 27.12 57.74 27.12 57.74C41.84 61.9 49.51 53.35 50.71 43.94C54.35 43.82 57.27 40.83 57.27 37.16C57.27 33.41 54.24 30.38 50.49 30.38C46.75 30.38 43.71 33.41 43.71 37.16Z" stroke="#000000" stroke-opacity="1.000000" stroke-width="2.460937" stroke-linejoin="round"/>
			<path id="path5477" d="M18.42 43.27C17.32 42.43 16.08 41.67 14.69 41.05L14.65 41.03C4.47 36.54 5.94 25.17 5.97 24.93C5.97 24.93 5.97 24.93 5.97 24.93C-1.79 19.71 6.26 12.73 10.25 17.98C12.28 19.98 12.23 23.36 12.23 23.36C16.28 26.01 16.1 32.8 16.1 32.8C20.46 35.22 18.42 43.27 18.42 43.27Z" stroke="#000000" stroke-opacity="1.000000" stroke-width="2.460937" stroke-linejoin="round"/>
			<path id="path5481" d="M38.21 7.63L38.21 7.63C38.21 7.63 36.63 1.17 29.12 1.17C21.61 1.17 20.64 6.49 20.64 6.49C20.64 6.49 8.25 5.18 7.07 16.13L7.07 16.13C8.18 16.21 9.32 16.77 10.25 17.98L10.25 17.98" stroke="#000000" stroke-opacity="1.000000" stroke-width="2.460937" stroke-linejoin="round" stroke-linecap="round"/>
			<path id="path5485" d="M28.69 27.67C31.12 25.28 37.16 24.08 40.91 27.14" stroke="#000000" stroke-opacity="1.000000" stroke-width="2.460937" stroke-linejoin="round" stroke-linecap="round"/>
			<path id="path5489" d="M26.61 33.82C26.61 33.82 23.72 24.27 19 23.12" stroke="#000000" stroke-opacity="1.000000" stroke-width="2.460937" stroke-linejoin="round" stroke-linecap="round"/>
			<path id="path5493" d="M31.91 38.67C29.45 38.66 26.37 39.61 25.65 42.63M34.94 39.43C34.93 39.41 34.92 39.4 34.9 39.39" stroke="#000000" stroke-opacity="1.000000" stroke-width="2.460937" stroke-linejoin="round" stroke-linecap="round"/>
			<path id="path5497" d="M20.64 6.49L21.87 7.47" stroke="#000000" stroke-opacity="1.000000" stroke-width="2.460937" stroke-linejoin="round" stroke-linecap="round"/>
			<path id="path5501" d="M37.66 50.96C39.45 50.95 40.79 51.32 41.65 52.12" stroke="#000000" stroke-opacity="1.000000" stroke-width="2.460937" stroke-linejoin="round" stroke-linecap="round"/>
			<path id="path5505" d="M12.23 23.36C12.23 23.36 11.39 26.17 11.74 29.6" stroke="#000000" stroke-opacity="1.000000" stroke-width="2.460937" stroke-linejoin="round" stroke-linecap="round"/>
			<path id="path5509" d="M50.91 13.28C50.91 13.28 48.56 13.24 47.19 14.54" stroke="#000000" stroke-opacity="1.000000" stroke-width="2.460937" stroke-linejoin="round" stroke-linecap="round"/>
			<path id="path5513" d="M50.71 43.94C50.71 43.94 50.93 40.33 51.45 39.36" stroke="#000000" stroke-opacity="1.000000" stroke-width="2.460937" stroke-linejoin="round" stroke-linecap="round"/>
		</g>
	</g>
</svg>
