<svg width="60.000000" height="60.000000" viewBox="0 0 60 60" fill="none" xmlns="http://www.w3.org/2000/svg" xmlns:xlink="http://www.w3.org/1999/xlink">
	<desc>
			Created with Pixso.
	</desc>
	<defs>
		<clipPath id="clip1_687">
			<rect id="carrot" rx="0.000000" width="59.000000" height="59.000000" transform="translate(0.500000 0.500000)" fill="white" fill-opacity="0"/>
		</clipPath>
	</defs>
	<rect id="carrot" rx="0.000000" width="59.000000" height="59.000000" transform="translate(0.500000 0.500000)" fill="#FFFFFF" fill-opacity="0"/>
	<g clip-path="url(#clip1_687)">
		<path id="Vector" d="M58.09 15C57.09 13.43 55.41 12.7 53.79 12.81C55.94 11.03 56.05 7.82 54.12 5.89C52.18 3.95 48.98 4.07 47.19 6.21C47.3 4.59 46.57 2.92 45 1.91C41.98 -0.03 37.92 2.14 37.83 5.78C37.78 8.21 36.83 11.68 35.71 16.09L35.71 16.09C37.4 17 38.97 18.34 40.31 19.69C41.67 21.05 43 22.61 43.92 24.29C48.88 23.03 51.92 22.22 54.22 22.17C57.86 22.09 60.04 18.03 58.09 15Z" fill="#85E374" fill-opacity="1.000000" fill-rule="nonzero"/>
		<path id="Vector" d="M39.33 37.08C25.66 46.37 5.06 61.78 1.64 58.36C-1.77 54.94 13.63 34.35 22.92 20.68C28.06 13.12 33.74 13.12 40.31 19.69C46.85 26.23 46.93 31.92 39.33 37.08Z" fill="#FEA832" fill-opacity="1.000000" fill-rule="nonzero"/>
		<path id="Vector" d="M34.36 27.3C34.82 26.84 34.82 26.1 34.36 25.64C33.9 25.19 33.16 25.19 32.7 25.64C32.24 26.1 32.24 26.84 32.7 27.3C33.16 27.76 33.9 27.76 34.36 27.3Z" fill="#000000" fill-opacity="1.000000" fill-rule="nonzero"/>
		<path id="Vector" d="M19.45 42.21C19.91 41.76 19.91 41.01 19.45 40.56C18.99 40.1 18.25 40.1 17.79 40.56C17.33 41.01 17.33 41.76 17.79 42.21C18.25 42.67 18.99 42.67 19.45 42.21Z" fill="#000000" fill-opacity="1.000000" fill-rule="nonzero"/>
		<path id="Vector" d="M39.98 38.05C44.77 34.8 47.75 30.5 45.58 25.08C48.61 24.32 52.01 23.39 54.25 23.34C58.8 23.24 61.52 18.17 59.08 14.37C58.32 13.19 57.24 12.35 55.99 11.93C57.14 9.75 56.82 6.94 54.94 5.06C53.09 3.2 50.29 2.86 48.07 4.02C47.66 2.77 46.81 1.68 45.63 0.92C41.84 -1.51 36.77 1.2 36.66 5.75C36.61 8.04 35.65 11.52 34.92 14.42C29.5 12.26 25.21 15.23 21.95 20.02C16.62 27.87 9.1 38.24 4.45 46.14C0.12 53.5 -0.97 57.41 0.81 59.19C4.99 63.36 22.06 50.24 39.98 38.05ZM57.11 15.64C58.55 17.88 56.94 20.94 54.2 21C51.55 21.06 47.98 22.07 44.48 22.94C43.99 22.15 43.4 21.35 42.7 20.53C54.59 13.78 53.76 14.28 54.2 13.97C55.38 14 56.45 14.6 57.11 15.64ZM53.29 6.72C54.95 8.38 54.54 11.18 52.47 12.3C52.46 12.3 52.46 12.3 52.45 12.31L41.47 18.54L47.7 7.55C47.7 7.55 47.7 7.54 47.71 7.53C48.84 5.45 51.64 5.07 53.29 6.72ZM39 5.81C39.07 3.06 42.13 1.46 44.37 2.9C45.4 3.56 46 4.63 46.03 5.81C45.72 6.25 46.2 5.45 39.47 17.31C38.65 16.61 37.85 16.01 37.06 15.52C38.03 11.65 38.94 8.36 39 5.81ZM2.86 54.54C3.49 52.75 4.71 50.32 6.47 47.33C7.22 46.05 8.06 44.7 8.94 43.31L11.16 45.53C11.62 45.98 12.36 45.98 12.82 45.53C13.28 45.07 13.28 44.33 12.82 43.87L10.24 41.29C12.34 38.07 14.66 34.68 16.93 31.41L21.1 35.59C21.56 36.04 22.3 36.04 22.76 35.59C23.22 35.13 23.22 34.39 22.76 33.93L18.29 29.45C20.18 26.72 22.17 23.87 23.89 21.34C24.3 20.73 24.71 20.19 25.11 19.71L29.39 23.99C29.85 24.45 30.59 24.45 31.05 23.99C31.5 23.53 31.5 22.79 31.05 22.33L26.73 18.02C31.11 14.21 35.37 16.4 39.49 20.52C45.64 26.67 45.5 31.47 38.67 36.11C37.94 36.61 37.19 37.12 36.42 37.65L32.7 33.93C32.24 33.47 31.5 33.47 31.05 33.93C30.59 34.39 30.59 35.13 31.05 35.59L34.46 39C31.27 41.21 28.01 43.5 24.67 45.78L22.76 43.87C22.3 43.41 21.56 43.41 21.11 43.87C20.65 44.33 20.65 45.07 21.11 45.53L22.7 47.12C18.45 49.99 10.27 55.44 5.46 57.15C3 58.02 2.49 57.55 2.47 57.53C2.45 57.51 1.98 57.01 2.86 54.54Z" fill="#000000" fill-opacity="1.000000" fill-rule="nonzero"/>
	</g>
</svg>
