<svg width="60.000000" height="60.000000" viewBox="0 0 60 60" fill="none" xmlns="http://www.w3.org/2000/svg" xmlns:xlink="http://www.w3.org/1999/xlink">
	<desc>
			Created with Pixso.
	</desc>
	<defs>
		<clipPath id="clip1_748">
			<rect id="eggplant" rx="0.000000" width="59.000000" height="59.000000" transform="translate(0.500000 0.500000)" fill="white" fill-opacity="0"/>
		</clipPath>
	</defs>
	<rect id="eggplant" rx="0.000000" width="59.000000" height="59.000000" transform="translate(0.500000 0.500000)" fill="#FFFFFF" fill-opacity="0"/>
	<g clip-path="url(#clip1_748)">
		<path id="Shape" d="M53.7 27.91L53.68 27.94C51.16 43.65 33.53 58.99 22.63 58.99C11.84 58.99 4 52.41 4 42.07C4 31.73 11.9 26.39 17.73 25.15C26.55 23.27 29.93 21.7 33.41 16.69C33.95 15.93 34.6 15.25 35.34 14.67C35.88 16.53 43.49 14.35 46.05 14.99C53.71 16.89 51.35 26.94 53.7 27.91Z" fill="#9D27B0" fill-opacity="1.000000" fill-rule="nonzero"/>
		<path id="Shape" d="M36.35 15.35C35.81 15.24 35.45 15.03 35.34 14.67C35.04 14.91 34.76 15.17 34.49 15.44C35.05 15.45 35.68 15.41 36.35 15.35Z" fill="#6A1B9A" fill-opacity="1.000000" fill-rule="nonzero"/>
		<path id="Shape" d="M46.05 15C45.01 14.84 43.96 14.83 42.93 14.98C42.97 14.98 43.01 14.99 43.05 15C50.71 16.89 48.35 26.94 50.7 27.91L50.69 27.94C48.25 43.08 31.81 57.86 20.86 58.93C21.44 58.97 22.03 59 22.63 59C33.53 59 51.16 43.65 53.69 27.94L53.7 27.91C51.35 26.94 53.71 16.89 46.05 15Z" fill="#6A1B9A" fill-opacity="1.000000" fill-rule="nonzero"/>
		<path id="Shape" d="M54.1 28C53.96 28 53.82 27.97 53.7 27.91C51.35 26.95 53.71 16.89 46.05 15C43.49 14.35 35.88 16.54 35.35 14.68C35.25 14.31 35.43 13.75 36 13C38.99 9 45.05 10 48.06 10C51.07 10 48.06 3 48.06 3C49.07 1 52.09 1 52.09 1C56.11 7 52.09 10 54.1 13C56.11 16 57.11 28 54.1 28Z" fill="#60A917" fill-opacity="1.000000" fill-rule="nonzero"/>
		<path id="Shape" d="M54.1 13C52.09 10 56.11 7 52.09 1C51.18 1.02 50.29 1.23 49.47 1.63C52.79 7.2 49.16 10.1 51.1 13C52.6 15.24 53.54 22.53 52.65 26.05C52.87 27.01 53.16 27.7 53.7 27.91C53.82 27.97 53.96 28 54.1 28C57.11 28 56.11 16 54.1 13Z" fill="#549414" fill-opacity="1.000000" fill-rule="nonzero"/>
		<path id="Shape" d="M8 41C7.44 41 7 40.55 7 40C7 37.43 9.44 31.11 16.72 29.03C17.07 28.92 17.45 29.01 17.71 29.26C17.98 29.51 18.08 29.89 17.99 30.24C17.9 30.59 17.62 30.87 17.27 30.96C10.47 32.9 9 38.67 9 40C9 40.55 8.55 41 8 41Z" fill="#F5F5F5" fill-opacity="1.000000" fill-rule="nonzero"/>
		<path id="Oval" d="M9 44C9 44.55 8.55 45 8 45C7.44 45 7 44.55 7 44C7 43.44 7.44 43 8 43C8.55 43 9 43.44 9 44Z" fill="#F5F5F5" fill-opacity="1.000000" fill-rule="evenodd"/>
		<path id="Shape" d="M22.63 60C33.93 60 51.44 44.77 54.51 28.95C55.23 28.78 55.83 28.28 56.14 27.6C57.81 24.47 56.8 15.24 54.92 12.44C54.34 11.57 54.45 10.69 54.68 9.21C55.4 6.17 54.75 2.97 52.91 0.44C52.73 0.16 52.41 0 52.08 0C51.93 0 48.43 0.02 47.17 2.55C47.03 2.81 47.02 3.12 47.14 3.39C48.03 5.47 48.72 8.25 48.27 8.93C48.25 8.96 48.23 9 48.06 9C47.62 9 47.1 8.97 46.55 8.95C43.16 8.79 38.05 8.58 35.2 12.39C34.77 12.92 34.47 13.54 34.35 14.21C33.68 14.77 33.09 15.41 32.58 16.12C29.41 20.69 26.45 22.27 17.52 24.18C9.04 25.93 2.96 33.41 3 42.08C3 52.63 11.07 60 22.63 60ZM36.8 13.6C39.02 10.62 43.32 10.81 46.46 10.95C47.05 10.97 47.59 11 48.06 11C48.81 11.02 49.52 10.66 49.94 10.04C51.06 8.33 49.84 4.74 49.18 3.1C49.83 2.48 50.67 2.11 51.56 2.04C52.88 4.07 53.29 6.55 52.71 8.89C52.46 10.41 52.21 11.98 53.26 13.55C54.74 15.75 55.68 24.23 54.38 26.66C54.26 26.88 54.14 27 54.08 27C53.74 26.79 53.48 25.16 53.3 24.09C52.73 20.64 51.87 15.42 46.28 14.03C45.78 13.92 45.26 13.87 44.75 13.88C43.52 13.91 42.29 14.01 41.08 14.17C39.56 14.34 37.09 14.61 36.35 14.33C36.46 14.07 36.61 13.82 36.8 13.6ZM17.93 26.13C26.71 24.26 30.49 22.64 34.23 17.27C34.55 16.82 34.92 16.4 35.33 16.03C36.55 16.67 38.7 16.44 41.31 16.15C42.79 15.9 44.3 15.84 45.81 15.97C50.12 17.04 50.79 21.13 51.33 24.41C51.59 25.99 51.85 27.5 52.59 28.33C49.86 43.14 33.04 58 22.63 58C12.08 58 5 51.6 5 42.08C5 31.64 13.46 27.08 17.93 26.13Z" fill="#000000" fill-opacity="1.000000" fill-rule="nonzero"/>
	</g>
</svg>
