<svg width="60.000000" height="60.000000" viewBox="0 0 60 60" fill="none" xmlns="http://www.w3.org/2000/svg" xmlns:xlink="http://www.w3.org/1999/xlink">
	<desc>
			Created with Pixso.
	</desc>
	<defs/>
	<mask id="mask1_766" mask-type="alpha" maskUnits="userSpaceOnUse" x="0.000000" y="0.000000" width="60.000000" height="60.000000">
		<path id="path5478" d="M0 0L60 0L60 60L0 60L0 0Z" fill="#000000" fill-opacity="1.000000" fill-rule="nonzero"/>
	</mask>
	<g mask="url(#mask1_766)">
		<path id="path5484" d="M19.21 4.33C19.07 4.22 18.88 4.22 18.74 4.33C16.2 6.21 14.47 9.99 14.47 14.35C14.47 18.71 16.2 22.5 18.74 24.38C18.88 24.48 19.07 24.48 19.21 24.38C21.75 22.5 23.48 18.71 23.48 14.35C23.48 9.99 21.75 6.21 19.21 4.33Z" fill="#09A76D" fill-opacity="1.000000" fill-rule="nonzero"/>
		<path id="path5488" d="M18.74 4.33C16.2 6.21 14.47 9.99 14.47 14.35C14.47 18.71 16.2 22.5 18.74 24.38C18.88 24.48 19.07 24.48 19.21 24.38C21.75 22.5 23.48 18.71 23.48 14.35C23.48 9.99 21.75 6.21 19.21 4.33C19.07 4.22 18.88 4.22 18.74 4.33Z" stroke="#000000" stroke-opacity="1.000000" stroke-width="1.816406" stroke-linejoin="round"/>
		<path id="path5492" d="M5.68 7.1C5.51 7.13 5.38 7.26 5.36 7.43C4.89 10.56 6.34 14.46 9.42 17.54C12.51 20.62 16.41 22.07 19.54 21.61C19.71 21.58 19.84 21.45 19.86 21.28C20.33 18.15 18.88 14.25 15.8 11.17C12.71 8.08 8.81 6.64 5.68 7.1Z" fill="#02905D" fill-opacity="1.000000" fill-rule="nonzero"/>
		<path id="path5496" d="M5.36 7.43C4.89 10.56 6.34 14.46 9.42 17.54C12.51 20.62 16.41 22.07 19.54 21.61C19.71 21.58 19.84 21.45 19.86 21.28C20.33 18.15 18.88 14.25 15.8 11.17C12.71 8.08 8.81 6.64 5.68 7.1C5.51 7.13 5.38 7.26 5.36 7.43Z" stroke="#000000" stroke-opacity="1.000000" stroke-width="1.816406" stroke-linejoin="round"/>
		<path id="path5500" d="M32.59 7.43C32.57 7.26 32.44 7.13 32.27 7.1C29.14 6.64 25.24 8.08 22.15 11.17C19.07 14.25 17.62 18.15 18.09 21.28C18.11 21.45 18.24 21.58 18.41 21.61C21.54 22.07 25.44 20.62 28.53 17.54C31.61 14.46 33.06 10.56 32.59 7.43Z" fill="#02905D" fill-opacity="1.000000" fill-rule="nonzero"/>
		<path id="path5504" d="M26.02 8.33C24.67 9.02 23.35 9.97 22.15 11.17C19.07 14.25 17.62 18.15 18.09 21.28C18.11 21.45 18.24 21.58 18.41 21.61C21.54 22.07 25.44 20.62 28.53 17.54C31.61 14.46 33.06 10.56 32.59 7.43C32.57 7.26 32.44 7.13 32.27 7.1C31.52 6.99 30.74 6.99 29.93 7.09" stroke="#000000" stroke-opacity="1.000000" stroke-width="1.816406" stroke-linejoin="round" stroke-linecap="round"/>
		<path id="path5508" d="M22.57 17.78C22.43 17.67 22.38 17.49 22.45 17.32C23.28 15.2 25.56 13.26 28.58 12.4C31.6 11.54 34.56 11.97 36.39 13.33C36.53 13.44 36.59 13.62 36.52 13.79C35.69 15.91 33.4 17.85 30.39 18.71C27.37 19.57 24.41 19.14 22.57 17.78Z" fill="#09A76D" fill-opacity="1.000000" fill-rule="nonzero"/>
		<path id="path5512" d="M15.38 17.78C15.52 17.67 15.57 17.49 15.5 17.32C14.67 15.2 12.38 13.26 9.37 12.4C6.35 11.54 3.39 11.97 1.56 13.33C1.42 13.44 1.36 13.62 1.43 13.79C2.26 15.91 4.55 17.85 7.56 18.71C10.58 19.57 13.54 19.14 15.38 17.78Z" fill="#09A76D" fill-opacity="1.000000" fill-rule="nonzero"/>
		<path id="path5516" d="M22.45 17.32C23.28 15.2 25.56 13.26 28.58 12.4C31.6 11.54 34.56 11.97 36.39 13.33C36.53 13.44 36.59 13.62 36.52 13.79C35.69 15.91 33.4 17.85 30.39 18.71C27.37 19.57 24.41 19.14 22.57 17.78C22.43 17.67 22.38 17.49 22.45 17.32Z" stroke="#000000" stroke-opacity="1.000000" stroke-width="1.816406" stroke-linejoin="round"/>
		<path id="path5520" d="M15.5 17.32C14.67 15.2 12.38 13.26 9.37 12.4C6.35 11.54 3.39 11.97 1.56 13.33C1.42 13.44 1.36 13.62 1.43 13.79C2.26 15.91 4.55 17.85 7.56 18.71C10.58 19.57 13.54 19.14 15.38 17.78C15.52 17.67 15.57 17.49 15.5 17.32Z" stroke="#000000" stroke-opacity="1.000000" stroke-width="1.816406" stroke-linejoin="round"/>
		<path id="path5524" d="M23.93 51.48L35.86 30.08C39.39 23.73 34.81 15.92 27.54 15.92L10.41 15.92C3.14 15.92 -1.44 23.73 2.09 30.08L14.02 51.48C16.18 55.36 21.76 55.36 23.93 51.48Z" fill="#FB2B3A" fill-opacity="1.000000" fill-rule="nonzero"/>
		<path id="path5528" d="M20.18 51.48L8.24 30.08C4.71 23.73 9.29 15.92 16.56 15.92L10.41 15.92C3.14 15.92 -1.44 23.73 2.09 30.08L14.02 51.48C15.7 54.5 19.45 55.17 22.05 53.5C21.31 53.02 20.66 52.35 20.18 51.48Z" fill="#E41F2D" fill-opacity="1.000000" fill-rule="nonzero"/>
		<path id="path5532" d="M35.86 30.08C39.39 23.73 34.81 15.92 27.54 15.92L10.41 15.92C3.14 15.92 -1.44 23.73 2.09 30.08L14.02 51.48C16.18 55.36 21.76 55.36 23.93 51.48L35.86 30.08Z" stroke="#000000" stroke-opacity="1.000000" stroke-width="1.816406" stroke-linejoin="round"/>
		<path id="path5536" d="M7.82 26.98L7.82 28.52" stroke="#000000" stroke-opacity="1.000000" stroke-width="1.816406" stroke-linejoin="round" stroke-linecap="round"/>
		<path id="path5540" d="M15.26 26.98L15.26 28.52" stroke="#000000" stroke-opacity="1.000000" stroke-width="1.816406" stroke-linejoin="round" stroke-linecap="round"/>
		<path id="path5544" d="M22.69 26.98L22.69 28.52" stroke="#000000" stroke-opacity="1.000000" stroke-width="1.816406" stroke-linejoin="round" stroke-linecap="round"/>
		<path id="path5548" d="M30.13 26.98L30.13 28.52" stroke="#000000" stroke-opacity="1.000000" stroke-width="1.816406" stroke-linejoin="round" stroke-linecap="round"/>
		<path id="path5552" d="M11.54 21.25L11.54 22.8" stroke="#000000" stroke-opacity="1.000000" stroke-width="1.816406" stroke-linejoin="round" stroke-linecap="round"/>
		<path id="path5556" d="M18.97 21.25L18.97 22.8" stroke="#000000" stroke-opacity="1.000000" stroke-width="1.816406" stroke-linejoin="round" stroke-linecap="round"/>
		<path id="path5560" d="M26.41 21.25L26.41 22.8" stroke="#000000" stroke-opacity="1.000000" stroke-width="1.816406" stroke-linejoin="round" stroke-linecap="round"/>
		<path id="path5564" d="M11.54 33.41L11.54 34.95" stroke="#000000" stroke-opacity="1.000000" stroke-width="1.816406" stroke-linejoin="round" stroke-linecap="round"/>
		<path id="path5568" d="M18.97 33.41L18.97 34.95" stroke="#000000" stroke-opacity="1.000000" stroke-width="1.816406" stroke-linejoin="round" stroke-linecap="round"/>
		<path id="path5572" d="M26.41 33.41L26.41 34.95" stroke="#000000" stroke-opacity="1.000000" stroke-width="1.816406" stroke-linejoin="round" stroke-linecap="round"/>
		<path id="path5576" d="M15.11 39.45L15.11 40.99" stroke="#000000" stroke-opacity="1.000000" stroke-width="1.816406" stroke-linejoin="round" stroke-linecap="round"/>
		<path id="path5580" d="M22.55 39.45L22.55 40.99" stroke="#000000" stroke-opacity="1.000000" stroke-width="1.816406" stroke-linejoin="round" stroke-linecap="round"/>
		<path id="path5584" d="M18.83 46L18.83 47.54" stroke="#000000" stroke-opacity="1.000000" stroke-width="1.816406" stroke-linejoin="round" stroke-linecap="round"/>
		<path id="path5588" d="M53.02 25.14C53 25 52.89 24.89 52.75 24.87C50.16 24.49 46.92 25.69 44.37 28.24C41.81 30.8 40.61 34.03 41 36.63C41.02 36.77 41.13 36.88 41.27 36.9C43.86 37.28 47.09 36.08 49.65 33.52C52.21 30.97 53.41 27.73 53.02 25.14Z" fill="#09A76D" fill-opacity="1.000000" fill-rule="nonzero"/>
		<path id="path5592" d="M52.75 24.87C50.16 24.49 46.92 25.69 44.37 28.24C41.81 30.8 40.61 34.03 41 36.63C41.02 36.77 41.13 36.88 41.27 36.9C43.86 37.28 47.09 36.08 49.65 33.52C52.21 30.97 53.41 27.73 53.02 25.14C53 25 52.89 24.89 52.75 24.87Z" stroke="#000000" stroke-opacity="1.000000" stroke-width="1.816406" stroke-linejoin="round"/>
		<path id="path5596" d="M43.47 18.84C43.35 18.75 43.2 18.75 43.09 18.84C40.98 20.4 39.54 23.54 39.54 27.15C39.54 30.77 40.98 33.9 43.09 35.46C43.2 35.55 43.35 35.55 43.47 35.46C45.57 33.9 47.01 30.77 47.01 27.15C47.01 23.54 45.57 20.4 43.47 18.84Z" fill="#02905D" fill-opacity="1.000000" fill-rule="nonzero"/>
		<path id="path5600" d="M45.33 20.9C44.81 20.07 44.18 19.36 43.47 18.84C43.35 18.75 43.2 18.75 43.09 18.84C40.98 20.4 39.54 23.54 39.54 27.15C39.54 30.77 40.98 33.9 43.09 35.46C43.2 35.55 43.35 35.55 43.47 35.46C45.57 33.9 47.01 30.77 47.01 27.15C47.01 26.33 46.94 25.53 46.8 24.77" stroke="#000000" stroke-opacity="1.000000" stroke-width="1.816406" stroke-linejoin="round" stroke-linecap="round"/>
		<path id="path5604" d="M59.05 34.81C59.14 34.69 59.14 34.54 59.05 34.42C57.49 32.32 54.35 30.88 50.74 30.88C47.13 30.88 43.99 32.32 42.43 34.42C42.34 34.54 42.34 34.69 42.43 34.81C43.99 36.91 47.13 38.35 50.74 38.35C54.35 38.35 57.49 36.91 59.05 34.81Z" fill="#09A76D" fill-opacity="1.000000" fill-rule="nonzero"/>
		<path id="path5608" d="M59.05 34.42C57.49 32.32 54.35 30.88 50.74 30.88C47.13 30.88 43.99 32.32 42.43 34.42C42.34 34.54 42.34 34.69 42.43 34.81C43.99 36.91 47.13 38.35 50.74 38.35C54.35 38.35 57.49 36.91 59.05 34.81C59.14 34.69 59.14 34.54 59.05 34.42Z" stroke="#000000" stroke-opacity="1.000000" stroke-width="1.816406" stroke-linejoin="round"/>
		<path id="path5612" d="M47.11 35C47.09 34.86 47.17 34.72 47.3 34.66C49.04 33.9 51.51 34.11 53.79 35.37C56.06 36.63 57.54 38.62 57.82 40.5C57.84 40.64 57.76 40.78 57.63 40.84C55.89 41.59 53.42 41.39 51.14 40.13C48.87 38.87 47.39 36.87 47.11 35Z" fill="#02905D" fill-opacity="1.000000" fill-rule="nonzero"/>
		<path id="path5616" d="M47.3 34.66C49.04 33.9 51.51 34.11 53.79 35.37C56.06 36.63 57.54 38.62 57.82 40.5C57.84 40.64 57.76 40.78 57.63 40.84C55.89 41.59 53.42 41.39 51.14 40.13C48.87 38.87 47.39 36.87 47.11 35C47.09 34.86 47.17 34.72 47.3 34.66Z" stroke="#000000" stroke-opacity="1.000000" stroke-width="1.816406" stroke-linejoin="round"/>
		<path id="path5620" d="M42.89 30.78C43.04 30.8 43.17 30.72 43.23 30.59C43.99 28.85 43.79 26.38 42.52 24.11C41.26 21.83 39.27 20.35 37.39 20.07C37.25 20.05 37.11 20.13 37.05 20.26C36.3 22 36.5 24.47 37.76 26.75C39.03 29.02 41.02 30.5 42.89 30.78Z" fill="#09A76D" fill-opacity="1.000000" fill-rule="nonzero"/>
		<path id="path5624" d="M43.23 30.59C43.99 28.85 43.79 26.38 42.52 24.11C41.26 21.83 39.27 20.35 37.39 20.07C37.25 20.05 37.11 20.13 37.05 20.26C36.3 22 36.5 24.47 37.76 26.75C39.03 29.02 41.02 30.5 42.89 30.78C43.04 30.8 43.17 30.72 43.23 30.59Z" stroke="#000000" stroke-opacity="1.000000" stroke-width="1.816406" stroke-linejoin="round"/>
		<path id="path5628" d="M28.14 55.55L47.69 50C53.48 48.35 55.37 41.09 51.11 36.83L41.06 26.78C36.81 22.52 29.54 24.41 27.89 30.2L22.34 49.75C21.33 53.29 24.6 56.56 28.14 55.55Z" fill="#FB2B3A" fill-opacity="1.000000" fill-rule="nonzero"/>
		<path id="path5632" d="M27.25 54L32.81 34.46C34.19 29.59 39.54 27.48 43.74 29.46L41.06 26.78C36.81 22.52 29.54 24.41 27.89 30.2L22.34 49.75C21.43 52.93 23.99 55.9 27.09 55.73C27.04 55.17 27.08 54.59 27.25 54Z" fill="#E41F2D" fill-opacity="1.000000" fill-rule="nonzero"/>
		<path id="path5636" d="M42.37 51.51L47.69 50C53.48 48.35 55.37 41.09 51.11 36.83L41.06 26.78C36.81 22.52 29.54 24.41 27.89 30.2L22.34 49.75C21.33 53.29 24.6 56.56 28.14 55.55L38.42 52.63" stroke="#000000" stroke-opacity="1.000000" stroke-width="1.816406" stroke-linejoin="round" stroke-linecap="round"/>
		<path id="path5640" d="M33.07 31.74L32.16 32.65" stroke="#000000" stroke-opacity="1.000000" stroke-width="1.816406" stroke-linejoin="round" stroke-linecap="round"/>
		<path id="path5644" d="M37.43 36.1L36.53 37.01" stroke="#000000" stroke-opacity="1.000000" stroke-width="1.816406" stroke-linejoin="round" stroke-linecap="round"/>
		<path id="path5648" d="M41.79 40.46L40.89 41.37" stroke="#000000" stroke-opacity="1.000000" stroke-width="1.816406" stroke-linejoin="round" stroke-linecap="round"/>
		<path id="path5652" d="M46.15 44.82L45.25 45.73" stroke="#000000" stroke-opacity="1.000000" stroke-width="1.816406" stroke-linejoin="round" stroke-linecap="round"/>
		<path id="path5656" d="M38.6 30.57L37.7 31.47" stroke="#000000" stroke-opacity="1.000000" stroke-width="1.816406" stroke-linejoin="round" stroke-linecap="round"/>
		<path id="path5660" d="M42.96 34.93L42.06 35.83" stroke="#000000" stroke-opacity="1.000000" stroke-width="1.816406" stroke-linejoin="round" stroke-linecap="round"/>
		<path id="path5664" d="M47.32 39.29L46.42 40.19" stroke="#000000" stroke-opacity="1.000000" stroke-width="1.816406" stroke-linejoin="round" stroke-linecap="round"/>
		<path id="path5668" d="M31.47 37.7L30.57 38.6" stroke="#000000" stroke-opacity="1.000000" stroke-width="1.816406" stroke-linejoin="round" stroke-linecap="round"/>
		<path id="path5672" d="M35.84 42.06L34.93 42.96" stroke="#000000" stroke-opacity="1.000000" stroke-width="1.816406" stroke-linejoin="round" stroke-linecap="round"/>
		<path id="path5676" d="M40.2 46.42L39.29 47.32" stroke="#000000" stroke-opacity="1.000000" stroke-width="1.816406" stroke-linejoin="round" stroke-linecap="round"/>
		<path id="path5680" d="M30.03 43.33L29.13 44.24" stroke="#000000" stroke-opacity="1.000000" stroke-width="1.816406" stroke-linejoin="round" stroke-linecap="round"/>
		<path id="path5684" d="M34.39 47.69L33.49 48.6" stroke="#000000" stroke-opacity="1.000000" stroke-width="1.816406" stroke-linejoin="round" stroke-linecap="round"/>
		<path id="path5688" d="M28.37 49.35L27.47 50.25" stroke="#000000" stroke-opacity="1.000000" stroke-width="1.816406" stroke-linejoin="round" stroke-linecap="round"/>
	</g>
</svg>
