<svg width="61" height="60" viewBox="0 0 61 60" fill="none" xmlns="http://www.w3.org/2000/svg">
<g clip-path="url(#clip0_1_949)">
<path d="M56.5 33.9998C56.5 51.9998 45.5 58.9998 38.5 58.9998C33.5 58.9998 31.5 56.9998 30.5 56.9998C29.5 56.9998 27.5 58.9998 22.5 58.9998C15.5 58.9998 4.5 51.9998 4.5 33.9998C4.5 17.9998 13.5 13.9998 22.5 13.9998H22.51C25.2311 13.9437 27.9393 14.3877 30.5 15.3098H30.51C33.0707 14.3877 35.7789 13.9437 38.5 13.9998C47.5 13.9998 56.5 17.9998 56.5 33.9998Z" fill="#F44335"/>
<path d="M38.5001 14C37.9831 14 37.4901 14.017 37.0081 14.041C45.4781 14.487 53.5001 18.9 53.5001 34C53.5001 50.9 43.8091 58.1 36.8301 58.919C37.3471 58.97 37.9001 59 38.5001 59C45.5001 59 56.5001 52 56.5001 34C56.5001 18 47.5001 14 38.5001 14Z" fill="#C81E1E"/>
<path d="M33.55 16.9201C32.6048 16.2636 31.5841 15.7231 30.51 15.3101L33.55 16.9201Z" fill="#F44335"/>
<path d="M30.5 10.3798V15.3098C27.9393 14.3877 25.231 13.9437 22.5099 13.9998H22.4999C21.2758 13.5537 20.1609 12.8514 19.2299 11.9398C15.4899 8.11984 16.7399 1.07984 16.7399 1.07984C16.7399 1.07984 24.0599 0.239839 27.8099 4.05984C29.3618 5.82313 30.3049 8.03903 30.5 10.3798Z" fill="#60A917"/>
<path d="M27.81 4.06015C24.468 0.660145 18.31 0.952145 17 1.06015C19.434 1.23515 22.691 1.90515 24.81 4.06015C26.3618 5.82344 27.305 8.03934 27.5 10.3801V14.4631C28.5221 14.6603 29.5257 14.9437 30.5 15.3101V10.3801C30.305 8.03934 29.3618 5.82344 27.81 4.06015Z" fill="#549414"/>
<path d="M8.73302 31C8.69088 31.0003 8.64877 30.9977 8.60702 30.992C8.34376 30.9591 8.10438 30.8228 7.94159 30.6133C7.77879 30.4038 7.70592 30.1382 7.73902 29.875C8.82702 21.211 13.655 17 22.5 17C23.0523 17 23.5 17.4477 23.5 18C23.5 18.5523 23.0523 19 22.5 19C14.736 19 10.676 22.535 9.72402 30.125C9.66108 30.6246 9.23653 30.9994 8.73302 31Z" fill="#F5F5F5"/>
<path d="M8.5 35C9.05228 35 9.5 34.5523 9.5 34C9.5 33.4477 9.05228 33 8.5 33C7.94772 33 7.5 33.4477 7.5 34C7.5 34.5523 7.94772 35 8.5 35Z" fill="#F5F5F5"/>
<path d="M3.5 34.0001C3.5 52.9411 15.154 60.0001 22.5 60.0001C24.9824 60.0404 27.4374 59.4773 29.654 58.3591C29.9225 58.2214 30.1998 58.1015 30.484 58.0001C30.7814 58.0939 31.0699 58.2141 31.346 58.3591C33.5626 59.4773 36.0176 60.0404 38.5 60.0001C45.846 60.0001 57.5 52.9411 57.5 34.0001C57.5 16.6431 47.167 13.0001 38.5 13.0001C36.1334 12.9774 33.7759 13.2957 31.5 13.9451V9.00008C31.5 7.11908 31.5 3.61808 34.947 1.90008C35.2668 1.74038 35.477 1.42223 35.4986 1.06546C35.5202 0.7087 35.3498 0.367528 35.0516 0.170463C34.7534 -0.0266023 34.3728 -0.0496216 34.053 0.110076C31.9782 1.1092 30.4575 2.98223 29.906 5.21808C29.5245 4.5446 29.0598 3.92172 28.523 3.36408C24.478 -0.760924 16.944 0.0490761 16.626 0.0860761C16.1869 0.136769 15.8331 0.469788 15.756 0.905076C15.701 1.21308 14.462 8.50508 18.519 12.6441C18.712 12.8381 18.919 13.0201 19.137 13.1981C11.372 14.1491 3.5 18.8501 3.5 34.0001ZM17.629 2.02108C19.518 1.94008 24.413 2.02708 27.095 4.75908C28.4945 6.34626 29.3387 8.34618 29.5 10.4561V13.9401C27.2951 13.3152 25.0137 13.0015 22.722 13.0081C21.6847 12.6152 20.7392 12.0134 19.944 11.2401C17.3 8.53608 17.45 3.85508 17.629 2.02108ZM22.5 15.0001C25.0894 14.9487 27.6667 15.3654 30.108 16.2301H30.118L30.148 16.2401C31.1468 16.6255 32.0959 17.1291 32.975 17.7401C33.267 17.9524 33.6508 17.9907 33.9791 17.8405C34.3074 17.6902 34.5292 17.3747 34.5595 17.0149C34.5897 16.6551 34.4236 16.307 34.125 16.1041C33.844 15.9041 33.551 15.7171 33.249 15.5371C34.9744 15.1665 36.7353 14.9864 38.5 15.0001C49.78 15.0001 55.5 21.3931 55.5 34.0001C55.5 51.4841 45.073 58.0001 38.5 58.0001C36.313 58.0406 34.1496 57.543 32.2 56.5511C31.6798 56.2467 31.0998 56.0587 30.5 56.0001C29.9002 56.0587 29.3202 56.2467 28.8 56.5511C26.8504 57.543 24.687 58.0406 22.5 58.0001C15.927 58.0001 5.5 51.4841 5.5 34.0001C5.5 21.3931 11.22 15.0001 22.5 15.0001Z" fill="black"/>
</g>
<defs>
<clipPath id="clip0_1_949">
<rect width="60" height="60" fill="white" transform="translate(0.5)"/>
</clipPath>
</defs>
</svg>
